# xmcd
#
# Track frame offsets: 
#        150
#        19508
#        40495
#        64625
#        90544
#        108600
#        115564
#        136203
#        152642
#        180566
#
# Disc length: 2647 seconds
#
# Revision: 0
# Processed by: cddbd v1.5.2PL0 Copyright (c) Steve Scherf et al.
# Submitted via: ExactAudioCopy v0.99pb4
#
DISCID=760a550a
DTITLE=Tori Amos - Live At Montreux CD1
DYEAR=1991
DGENRE=Blues
TTITLE0=Silent All These Years
TTITLE1=Precious Things
TTITLE2=Hina
TTITLE3=Crucify
TTITLE4=Leather
TTITLE5=Song For Eric
TTITLE6=Upside Down
TTITLE7=Happy Phantom
TTITLE8=Winter
TTITLE9=Thank You
EXTD=
EXTT0=
EXTT1=
EXTT2=
EXTT3=
EXTT4=
EXTT5=
EXTT6=
EXTT7=
EXTT8=
EXTT9=
PLAYORDER=
